<?xml version="1.0" encoding="utf-8" ?>
<svg baseProfile="full" height="32px" version="1.1" viewBox="0 0 32 32" width="32px" xmlns="http://www.w3.org/2000/svg" xmlns:ev="http://www.w3.org/2001/xml-events" xmlns:xlink="http://www.w3.org/1999/xlink"><defs /><rect fill="#00aa55" height="1" width="1" x="10" y="0" /><rect fill="#007f7f" height="1" width="1" x="11" y="0" /><rect fill="#007f7f" height="1" width="1" x="20" y="0" /><rect fill="#00aa55" height="1" width="1" x="21" y="0" /><rect fill="#005555" height="1" width="1" x="8" y="1" /><rect fill="#00ffff" height="1" width="1" x="9" y="1" /><rect fill="#3f7f7f" height="1" width="1" x="12" y="1" /><rect fill="#1e9678" height="1" width="1" x="13" y="1" /><rect fill="#1d9275" height="1" width="1" x="14" y="1" /><rect fill="#1e9075" height="1" width="1" x="15" y="1" /><rect fill="#1b8e73" height="1" width="1" x="16" y="1" /><rect fill="#1d9072" height="1" width="1" x="17" y="1" /><rect fill="#1e8e70" height="1" width="1" x="18" y="1" /><rect fill="#00aa55" height="1" width="1" x="19" y="1" /><rect fill="#00ffff" height="1" width="1" x="22" y="1" /><rect fill="#007f7f" height="1" width="1" x="23" y="1" /><rect fill="#00aa55" height="1" width="1" x="7" y="2" /><rect fill="#1b9575" height="1" width="1" x="10" y="2" /><rect fill="#1c9577" height="1" width="1" x="11" y="2" /><rect fill="#1c9476" height="1" width="1" x="12" y="2" /><rect fill="#1c9375" height="1" width="1" x="13" y="2" /><rect fill="#1d997a" height="1" width="1" x="14" y="2" /><rect fill="#1d9b7c" height="1" width="1" x="15" y="2" /><rect fill="#1d9b7c" height="1" width="1" x="16" y="2" /><rect fill="#1d987a" height="1" width="1" x="17" y="2" /><rect fill="#1b9376" height="1" width="1" x="18" y="2" /><rect fill="#1c9476" height="1" width="1" x="19" y="2" /><rect fill="#1c9476" height="1" width="1" x="20" y="2" /><rect fill="#1c9175" height="1" width="1" x="21" y="2" /><rect fill="#00aa55" height="1" width="1" x="24" y="2" /><rect fill="#00ff00" height="1" width="1" x="5" y="3" /><rect fill="#00ffff" height="1" width="1" x="6" y="3" /><rect fill="#1b8f73" height="1" width="1" x="8" y="3" /><rect fill="#1d9677" height="1" width="1" x="9" y="3" /><rect fill="#1d987a" height="1" width="1" x="10" y="3" /><rect fill="#1e9d7e" height="1" width="1" x="11" y="3" /><rect fill="#1d977a" height="1" width="1" x="12" y="3" /><rect fill="#1c9476" height="1" width="1" x="13" y="3" /><rect fill="#1c9375" height="1" width="1" x="14" y="3" /><rect fill="#1b9275" height="1" width="1" x="15" y="3" /><rect fill="#1c9275" height="1" width="1" x="16" y="3" /><rect fill="#1c9374" height="1" width="1" x="17" y="3" /><rect fill="#1c9376" height="1" width="1" x="18" y="3" /><rect fill="#1d9879" height="1" width="1" x="19" y="3" /><rect fill="#1e9d7d" height="1" width="1" x="20" y="3" /><rect fill="#1d9879" height="1" width="1" x="21" y="3" /><rect fill="#1c9578" height="1" width="1" x="22" y="3" /><rect fill="#1c8f73" height="1" width="1" x="23" y="3" /><rect fill="#00ffff" height="1" width="1" x="25" y="3" /><rect fill="#00ff00" height="1" width="1" x="26" y="3" /><rect fill="#00ffff" height="1" width="1" x="4" y="4" /><rect fill="#000000" height="1" width="1" x="6" y="4" /><rect fill="#1b9275" height="1" width="1" x="7" y="4" /><rect fill="#1d9879" height="1" width="1" x="8" y="4" /><rect fill="#1d997b" height="1" width="1" x="9" y="4" /><rect fill="#1b9275" height="1" width="1" x="10" y="4" /><rect fill="#1b9275" height="1" width="1" x="11" y="4" /><rect fill="#1b9275" height="1" width="1" x="12" y="4" /><rect fill="#1c9275" height="1" width="1" x="13" y="4" /><rect fill="#1b9275" height="1" width="1" x="14" y="4" /><rect fill="#1b9275" height="1" width="1" x="15" y="4" /><rect fill="#1b9374" height="1" width="1" x="16" y="4" /><rect fill="#1c9375" height="1" width="1" x="17" y="4" /><rect fill="#1b9274" height="1" width="1" x="18" y="4" /><rect fill="#1b9274" height="1" width="1" x="19" y="4" /><rect fill="#1b9274" height="1" width="1" x="20" y="4" /><rect fill="#1b9274" height="1" width="1" x="21" y="4" /><rect fill="#1d997b" height="1" width="1" x="22" y="4" /><rect fill="#1c9778" height="1" width="1" x="23" y="4" /><rect fill="#1c9274" height="1" width="1" x="24" y="4" /><rect fill="#00ffff" height="1" width="1" x="27" y="4" /><rect fill="#00ffff" height="1" width="1" x="3" y="5" /><rect fill="#00ffff" height="1" width="1" x="4" y="5" /><rect fill="#1c7155" height="1" width="1" x="5" y="5" /><rect fill="#1c9376" height="1" width="1" x="6" y="5" /><rect fill="#1fa282" height="1" width="1" x="7" y="5" /><rect fill="#1b9375" height="1" width="1" x="8" y="5" /><rect fill="#1d9779" height="1" width="1" x="9" y="5" /><rect fill="#1c9275" height="1" width="1" x="10" y="5" /><rect fill="#1d997b" height="1" width="1" x="11" y="5" /><rect fill="#1d9c7d" height="1" width="1" x="12" y="5" /><rect fill="#1c9476" height="1" width="1" x="13" y="5" /><rect fill="#1c9577" height="1" width="1" x="14" y="5" /><rect fill="#1d9b7b" height="1" width="1" x="15" y="5" /><rect fill="#1d9b7b" height="1" width="1" x="16" y="5" /><rect fill="#1b9275" height="1" width="1" x="17" y="5" /><rect fill="#1c9678" height="1" width="1" x="18" y="5" /><rect fill="#1d9b7c" height="1" width="1" x="19" y="5" /><rect fill="#1d9a7b" height="1" width="1" x="20" y="5" /><rect fill="#1d9a7b" height="1" width="1" x="21" y="5" /><rect fill="#1c9678" height="1" width="1" x="22" y="5" /><rect fill="#1d9a7c" height="1" width="1" x="23" y="5" /><rect fill="#1fa685" height="1" width="1" x="24" y="5" /><rect fill="#1c9376" height="1" width="1" x="25" y="5" /><rect fill="#1c8d55" height="1" width="1" x="26" y="5" /><rect fill="#00ffff" height="1" width="1" x="27" y="5" /><rect fill="#00ffff" height="1" width="1" x="28" y="5" /><rect fill="#000000" height="1" width="1" x="2" y="6" /><rect fill="#00aaaa" height="1" width="1" x="3" y="6" /><rect fill="#007f7f" height="1" width="1" x="4" y="6" /><rect fill="#1d9577" height="1" width="1" x="5" y="6" /><rect fill="#1c997a" height="1" width="1" x="6" y="6" /><rect fill="#1a9273" height="1" width="1" x="7" y="6" /><rect fill="#1b9275" height="1" width="1" x="8" y="6" /><rect fill="#1b9274" height="1" width="1" x="9" y="6" /><rect fill="#1c9779" height="1" width="1" x="10" y="6" /><rect fill="#1b9174" height="1" width="1" x="11" y="6" /><rect fill="#1c9173" height="1" width="1" x="12" y="6" /><rect fill="#1b9375" height="1" width="1" x="13" y="6" /><rect fill="#1b9275" height="1" width="1" x="14" y="6" /><rect fill="#1a9173" height="1" width="1" x="15" y="6" /><rect fill="#1b9173" height="1" width="1" x="16" y="6" /><rect fill="#1c9577" height="1" width="1" x="17" y="6" /><rect fill="#1a9274" height="1" width="1" x="18" y="6" /><rect fill="#1a9273" height="1" width="1" x="19" y="6" /><rect fill="#1a9274" height="1" width="1" x="20" y="6" /><rect fill="#199073" height="1" width="1" x="21" y="6" /><rect fill="#1a9173" height="1" width="1" x="22" y="6" /><rect fill="#1b9173" height="1" width="1" x="23" y="6" /><rect fill="#1b9073" height="1" width="1" x="24" y="6" /><rect fill="#1c9879" height="1" width="1" x="25" y="6" /><rect fill="#1b9475" height="1" width="1" x="26" y="6" /><rect fill="#007f7f" height="1" width="1" x="27" y="6" /><rect fill="#00aa55" height="1" width="1" x="28" y="6" /><rect fill="#000000" height="1" width="1" x="29" y="6" /><rect fill="#00aa55" height="1" width="1" x="2" y="7" /><rect fill="#1b9173" height="1" width="1" x="4" y="7" /><rect fill="#20ad8a" height="1" width="1" x="5" y="7" /><rect fill="#1c8f72" height="1" width="1" x="6" y="7" /><rect fill="#1b8f72" height="1" width="1" x="7" y="7" /><rect fill="#1b9274" height="1" width="1" x="8" y="7" /><rect fill="#1f8d6d" height="1" width="1" x="9" y="7" /><rect fill="#1a9273" height="1" width="1" x="10" y="7" /><rect fill="#1b8d6d" height="1" width="1" x="11" y="7" /><rect fill="#1a9172" height="1" width="1" x="12" y="7" /><rect fill="#1b9374" height="1" width="1" x="13" y="7" /><rect fill="#199072" height="1" width="1" x="14" y="7" /><rect fill="#1c8b6e" height="1" width="1" x="15" y="7" /><rect fill="#198e70" height="1" width="1" x="16" y="7" /><rect fill="#199174" height="1" width="1" x="17" y="7" /><rect fill="#1b9173" height="1" width="1" x="18" y="7" /><rect fill="#1b8b70" height="1" width="1" x="19" y="7" /><rect fill="#1e8769" height="1" width="1" x="20" y="7" /><rect fill="#1b9474" height="1" width="1" x="21" y="7" /><rect fill="#1b9071" height="1" width="1" x="22" y="7" /><rect fill="#1b9375" height="1" width="1" x="23" y="7" /><rect fill="#3f7f3f" height="1" width="1" x="24" y="7" /><rect fill="#188f6f" height="1" width="1" x="25" y="7" /><rect fill="#20aa88" height="1" width="1" x="26" y="7" /><rect fill="#1b9072" height="1" width="1" x="27" y="7" /><rect fill="#00aa55" height="1" width="1" x="29" y="7" /><rect fill="#00aa55" height="1" width="1" x="1" y="8" /><rect fill="#1d9270" height="1" width="1" x="3" y="8" /><rect fill="#1c9778" height="1" width="1" x="4" y="8" /><rect fill="#1e9f7e" height="1" width="1" x="5" y="8" /><rect fill="#1c9273" height="1" width="1" x="6" y="8" /><rect fill="#1a9071" height="1" width="1" x="7" y="8" /><rect fill="#1b9274" height="1" width="1" x="8" y="8" /><rect fill="#1c8f73" height="1" width="1" x="9" y="8" /><rect fill="#1a9173" height="1" width="1" x="10" y="8" /><rect fill="#1d9370" height="1" width="1" x="11" y="8" /><rect fill="#1c9474" height="1" width="1" x="12" y="8" /><rect fill="#1d9a7a" height="1" width="1" x="13" y="8" /><rect fill="#1a9273" height="1" width="1" x="14" y="8" /><rect fill="#1b9173" height="1" width="1" x="15" y="8" /><rect fill="#20ad8a" height="1" width="1" x="16" y="8" /><rect fill="#188b6d" height="1" width="1" x="17" y="8" /><rect fill="#1a9173" height="1" width="1" x="18" y="8" /><rect fill="#1a9174" height="1" width="1" x="19" y="8" /><rect fill="#198e70" height="1" width="1" x="20" y="8" /><rect fill="#1ea080" height="1" width="1" x="21" y="8" /><rect fill="#1ea584" height="1" width="1" x="22" y="8" /><rect fill="#1b9174" height="1" width="1" x="23" y="8" /><rect fill="#198c6e" height="1" width="1" x="24" y="8" /><rect fill="#1c9979" height="1" width="1" x="25" y="8" /><rect fill="#1b9577" height="1" width="1" x="26" y="8" /><rect fill="#1d987a" height="1" width="1" x="27" y="8" /><rect fill="#1d9270" height="1" width="1" x="28" y="8" /><rect fill="#00aa55" height="1" width="1" x="30" y="8" /><rect fill="#007f7f" height="1" width="1" x="1" y="9" /><rect fill="#007f7f" height="1" width="1" x="2" y="9" /><rect fill="#1c9174" height="1" width="1" x="3" y="9" /><rect fill="#1c987a" height="1" width="1" x="4" y="9" /><rect fill="#1d9e7f" height="1" width="1" x="5" y="9" /><rect fill="#1a8f72" height="1" width="1" x="6" y="9" /><rect fill="#1a8f73" height="1" width="1" x="7" y="9" /><rect fill="#1a9274" height="1" width="1" x="8" y="9" /><rect fill="#1f8f6f" height="1" width="1" x="9" y="9" /><rect fill="#1b9173" height="1" width="1" x="10" y="9" /><rect fill="#1b9577" height="1" width="1" x="11" y="9" /><rect fill="#1b8e71" height="1" width="1" x="12" y="9" /><rect fill="#1c8b6e" height="1" width="1" x="13" y="9" /><rect fill="#1a9071" height="1" width="1" x="14" y="9" /><rect fill="#1b9173" height="1" width="1" x="15" y="9" /><rect fill="#1ea180" height="1" width="1" x="16" y="9" /><rect fill="#168769" height="1" width="1" x="17" y="9" /><rect fill="#1b9274" height="1" width="1" x="18" y="9" /><rect fill="#1a9274" height="1" width="1" x="19" y="9" /><rect fill="#148c6d" height="1" width="1" x="20" y="9" /><rect fill="#1d9d7e" height="1" width="1" x="21" y="9" /><rect fill="#1b9476" height="1" width="1" x="22" y="9" /><rect fill="#178b68" height="1" width="1" x="23" y="9" /><rect fill="#1b9476" height="1" width="1" x="24" y="9" /><rect fill="#1d9a7c" height="1" width="1" x="25" y="9" /><rect fill="#1b9174" height="1" width="1" x="26" y="9" /><rect fill="#1d9a7c" height="1" width="1" x="27" y="9" /><rect fill="#1b9073" height="1" width="1" x="28" y="9" /><rect fill="#000000" height="1" width="1" x="29" y="9" /><rect fill="#007f7f" height="1" width="1" x="30" y="9" /><rect fill="#00aaaa" height="1" width="1" x="0" y="10" /><rect fill="#1c9171" height="1" width="1" x="2" y="10" /><rect fill="#1d997a" height="1" width="1" x="3" y="10" /><rect fill="#1b9274" height="1" width="1" x="4" y="10" /><rect fill="#1d997a" height="1" width="1" x="5" y="10" /><rect fill="#1b9375" height="1" width="1" x="6" y="10" /><rect fill="#1d8e70" height="1" width="1" x="7" y="10" /><rect fill="#1a8c6e" height="1" width="1" x="8" y="10" /><rect fill="#1a9274" height="1" width="1" x="9" y="10" /><rect fill="#1b9475" height="1" width="1" x="10" y="10" /><rect fill="#1b8d6d" height="1" width="1" x="11" y="10" /><rect fill="#1c8e70" height="1" width="1" x="12" y="10" /><rect fill="#1b9072" height="1" width="1" x="13" y="10" /><rect fill="#1a9072" height="1" width="1" x="14" y="10" /><rect fill="#1b906e" height="1" width="1" x="15" y="10" /><rect fill="#1a896a" height="1" width="1" x="16" y="10" /><rect fill="#199273" height="1" width="1" x="17" y="10" /><rect fill="#1d9e7d" height="1" width="1" x="18" y="10" /><rect fill="#1a9174" height="1" width="1" x="19" y="10" /><rect fill="#1b8b70" height="1" width="1" x="20" y="10" /><rect fill="#1ea282" height="1" width="1" x="21" y="10" /><rect fill="#198d71" height="1" width="1" x="22" y="10" /><rect fill="#1c8d71" height="1" width="1" x="23" y="10" /><rect fill="#1e9677" height="1" width="1" x="24" y="10" /><rect fill="#1b8e70" height="1" width="1" x="25" y="10" /><rect fill="#1c997b" height="1" width="1" x="26" y="10" /><rect fill="#1b9275" height="1" width="1" x="27" y="10" /><rect fill="#1c987a" height="1" width="1" x="28" y="10" /><rect fill="#198e70" height="1" width="1" x="29" y="10" /><rect fill="#00aa55" height="1" width="1" x="31" y="10" /><rect fill="#007f7f" height="1" width="1" x="0" y="11" /><rect fill="#1b9274" height="1" width="1" x="2" y="11" /><rect fill="#1d9d7e" height="1" width="1" x="3" y="11" /><rect fill="#1b9375" height="1" width="1" x="4" y="11" /><rect fill="#1b9274" height="1" width="1" x="5" y="11" /><rect fill="#1c997a" height="1" width="1" x="6" y="11" /><rect fill="#1b9274" height="1" width="1" x="7" y="11" /><rect fill="#1b9174" height="1" width="1" x="8" y="11" /><rect fill="#1ea080" height="1" width="1" x="9" y="11" /><rect fill="#1ea383" height="1" width="1" x="10" y="11" /><rect fill="#1b9275" height="1" width="1" x="11" y="11" /><rect fill="#1b9174" height="1" width="1" x="12" y="11" /><rect fill="#1ea180" height="1" width="1" x="13" y="11" /><rect fill="#1d997a" height="1" width="1" x="14" y="11" /><rect fill="#1b9174" height="1" width="1" x="15" y="11" /><rect fill="#1b9273" height="1" width="1" x="16" y="11" /><rect fill="#1ea382" height="1" width="1" x="17" y="11" /><rect fill="#1d9d7d" height="1" width="1" x="18" y="11" /><rect fill="#1c997a" height="1" width="1" x="19" y="11" /><rect fill="#1c9577" height="1" width="1" x="20" y="11" /><rect fill="#1d9d7d" height="1" width="1" x="21" y="11" /><rect fill="#1c9677" height="1" width="1" x="22" y="11" /><rect fill="#1b9274" height="1" width="1" x="23" y="11" /><rect fill="#1c9174" height="1" width="1" x="24" y="11" /><rect fill="#1a9274" height="1" width="1" x="25" y="11" /><rect fill="#1b9476" height="1" width="1" x="26" y="11" /><rect fill="#1b9275" height="1" width="1" x="27" y="11" /><rect fill="#1d9d7e" height="1" width="1" x="28" y="11" /><rect fill="#1b9172" height="1" width="1" x="29" y="11" /><rect fill="#007f7f" height="1" width="1" x="31" y="11" /><rect fill="#007f3f" height="1" width="1" x="1" y="12" /><rect fill="#1b9174" height="1" width="1" x="2" y="12" /><rect fill="#1c987a" height="1" width="1" x="3" y="12" /><rect fill="#1b9375" height="1" width="1" x="4" y="12" /><rect fill="#1b9375" height="1" width="1" x="5" y="12" /><rect fill="#1b9275" height="1" width="1" x="6" y="12" /><rect fill="#1c9779" height="1" width="1" x="7" y="12" /><rect fill="#1b9175" height="1" width="1" x="8" y="12" /><rect fill="#198d71" height="1" width="1" x="9" y="12" /><rect fill="#1a8f6f" height="1" width="1" x="10" y="12" /><rect fill="#1a8f72" height="1" width="1" x="11" y="12" /><rect fill="#198e72" height="1" width="1" x="12" y="12" /><rect fill="#199071" height="1" width="1" x="13" y="12" /><rect fill="#198f71" height="1" width="1" x="14" y="12" /><rect fill="#1b9173" height="1" width="1" x="15" y="12" /><rect fill="#198e70" height="1" width="1" x="16" y="12" /><rect fill="#1a9071" height="1" width="1" x="17" y="12" /><rect fill="#198e70" height="1" width="1" x="18" y="12" /><rect fill="#198e70" height="1" width="1" x="19" y="12" /><rect fill="#1a9070" height="1" width="1" x="20" y="12" /><rect fill="#198e70" height="1" width="1" x="21" y="12" /><rect fill="#199072" height="1" width="1" x="22" y="12" /><rect fill="#1a9275" height="1" width="1" x="23" y="12" /><rect fill="#1d997b" height="1" width="1" x="24" y="12" /><rect fill="#1c9577" height="1" width="1" x="25" y="12" /><rect fill="#1b9375" height="1" width="1" x="26" y="12" /><rect fill="#1b9274" height="1" width="1" x="27" y="12" /><rect fill="#1d987a" height="1" width="1" x="28" y="12" /><rect fill="#1b9173" height="1" width="1" x="29" y="12" /><rect fill="#005555" height="1" width="1" x="30" y="12" /><rect fill="#000000" height="1" width="1" x="31" y="12" /><rect fill="#188b6a" height="1" width="1" x="1" y="13" /><rect fill="#1b9275" height="1" width="1" x="2" y="13" /><rect fill="#1c9476" height="1" width="1" x="3" y="13" /><rect fill="#1b9275" height="1" width="1" x="4" y="13" /><rect fill="#1b9375" height="1" width="1" x="5" y="13" /><rect fill="#1b9375" height="1" width="1" x="6" y="13" /><rect fill="#1c9678" height="1" width="1" x="7" y="13" /><rect fill="#1a9174" height="1" width="1" x="8" y="13" /><rect fill="#1c9274" height="1" width="1" x="23" y="13" /><rect fill="#1c9779" height="1" width="1" x="24" y="13" /><rect fill="#1b9275" height="1" width="1" x="25" y="13" /><rect fill="#1b9375" height="1" width="1" x="26" y="13" /><rect fill="#1b9275" height="1" width="1" x="27" y="13" /><rect fill="#1c9476" height="1" width="1" x="28" y="13" /><rect fill="#1b9274" height="1" width="1" x="29" y="13" /><rect fill="#1b916d" height="1" width="1" x="30" y="13" /><rect fill="#1a8f74" height="1" width="1" x="1" y="14" /><rect fill="#1c987a" height="1" width="1" x="2" y="14" /><rect fill="#1b9275" height="1" width="1" x="3" y="14" /><rect fill="#1b9375" height="1" width="1" x="4" y="14" /><rect fill="#1b9375" height="1" width="1" x="5" y="14" /><rect fill="#1b9275" height="1" width="1" x="6" y="14" /><rect fill="#1c9477" height="1" width="1" x="7" y="14" /><rect fill="#1a9274" height="1" width="1" x="8" y="14" /><rect fill="#1c8e70" height="1" width="1" x="9" y="14" /><rect fill="#1c8d71" height="1" width="1" x="10" y="14" /><rect fill="#1b9071" height="1" width="1" x="11" y="14" /><rect fill="#1b8e73" height="1" width="1" x="12" y="14" /><rect fill="#1c9376" height="1" width="1" x="13" y="14" /><rect fill="#1c8f72" height="1" width="1" x="14" y="14" /><rect fill="#007f7f" height="1" width="1" x="15" y="14" /><rect fill="#007f7f" height="1" width="1" x="16" y="14" /><rect fill="#1c8f72" height="1" width="1" x="17" y="14" /><rect fill="#1c9373" height="1" width="1" x="18" y="14" /><rect fill="#1b8e70" height="1" width="1" x="19" y="14" /><rect fill="#1b9071" height="1" width="1" x="20" y="14" /><rect fill="#1c8d71" height="1" width="1" x="21" y="14" /><rect fill="#199071" height="1" width="1" x="22" y="14" /><rect fill="#1b9274" height="1" width="1" x="23" y="14" /><rect fill="#1c9577" height="1" width="1" x="24" y="14" /><rect fill="#1b9275" height="1" width="1" x="25" y="14" /><rect fill="#1b9375" height="1" width="1" x="26" y="14" /><rect fill="#1b9275" height="1" width="1" x="27" y="14" /><rect fill="#1b9275" height="1" width="1" x="28" y="14" /><rect fill="#1c9779" height="1" width="1" x="29" y="14" /><rect fill="#1c9271" height="1" width="1" x="30" y="14" /><rect fill="#198f72" height="1" width="1" x="1" y="15" /><rect fill="#1d9b7c" height="1" width="1" x="2" y="15" /><rect fill="#1b9275" height="1" width="1" x="3" y="15" /><rect fill="#1b9375" height="1" width="1" x="4" y="15" /><rect fill="#1b9375" height="1" width="1" x="5" y="15" /><rect fill="#1b9375" height="1" width="1" x="6" y="15" /><rect fill="#1b9274" height="1" width="1" x="7" y="15" /><rect fill="#1b9376" height="1" width="1" x="8" y="15" /><rect fill="#1ea282" height="1" width="1" x="9" y="15" /><rect fill="#1ea282" height="1" width="1" x="10" y="15" /><rect fill="#1d9d7d" height="1" width="1" x="11" y="15" /><rect fill="#1c9678" height="1" width="1" x="12" y="15" /><rect fill="#1d9779" height="1" width="1" x="13" y="15" /><rect fill="#1a8f72" height="1" width="1" x="14" y="15" /><rect fill="#00ff00" height="1" width="1" x="15" y="15" /><rect fill="#007f7f" height="1" width="1" x="16" y="15" /><rect fill="#1a9173" height="1" width="1" x="17" y="15" /><rect fill="#1c9778" height="1" width="1" x="18" y="15" /><rect fill="#1c9678" height="1" width="1" x="19" y="15" /><rect fill="#1d9d7d" height="1" width="1" x="20" y="15" /><rect fill="#1ea281" height="1" width="1" x="21" y="15" /><rect fill="#1ea281" height="1" width="1" x="22" y="15" /><rect fill="#1b9476" height="1" width="1" x="23" y="15" /><rect fill="#1b9275" height="1" width="1" x="24" y="15" /><rect fill="#1b9375" height="1" width="1" x="25" y="15" /><rect fill="#1b9375" height="1" width="1" x="26" y="15" /><rect fill="#1b9375" height="1" width="1" x="27" y="15" /><rect fill="#1b9374" height="1" width="1" x="28" y="15" /><rect fill="#1d9a7b" height="1" width="1" x="29" y="15" /><rect fill="#1b8e73" height="1" width="1" x="30" y="15" /><rect fill="#199174" height="1" width="1" x="1" y="16" /><rect fill="#1d9b7c" height="1" width="1" x="2" y="16" /><rect fill="#1b9275" height="1" width="1" x="3" y="16" /><rect fill="#1b9375" height="1" width="1" x="4" y="16" /><rect fill="#1b9375" height="1" width="1" x="5" y="16" /><rect fill="#1b9275" height="1" width="1" x="6" y="16" /><rect fill="#1c9577" height="1" width="1" x="7" y="16" /><rect fill="#1c9477" height="1" width="1" x="8" y="16" /><rect fill="#1b9275" height="1" width="1" x="9" y="16" /><rect fill="#1c9274" height="1" width="1" x="10" y="16" /><rect fill="#1c9174" height="1" width="1" x="11" y="16" /><rect fill="#1c9073" height="1" width="1" x="12" y="16" /><rect fill="#1c9575" height="1" width="1" x="13" y="16" /><rect fill="#1a9072" height="1" width="1" x="14" y="16" /><rect fill="#1f7f5f" height="1" width="1" x="15" y="16" /><rect fill="#1f9f5f" height="1" width="1" x="16" y="16" /><rect fill="#1a9071" height="1" width="1" x="17" y="16" /><rect fill="#1b9577" height="1" width="1" x="18" y="16" /><rect fill="#1b9172" height="1" width="1" x="19" y="16" /><rect fill="#1b9374" height="1" width="1" x="20" y="16" /><rect fill="#1b9273" height="1" width="1" x="21" y="16" /><rect fill="#1b9475" height="1" width="1" x="22" y="16" /><rect fill="#1c9678" height="1" width="1" x="23" y="16" /><rect fill="#1c9577" height="1" width="1" x="24" y="16" /><rect fill="#1b9275" height="1" width="1" x="25" y="16" /><rect fill="#1b9375" height="1" width="1" x="26" y="16" /><rect fill="#1b9375" height="1" width="1" x="27" y="16" /><rect fill="#1b9375" height="1" width="1" x="28" y="16" /><rect fill="#1c997b" height="1" width="1" x="29" y="16" /><rect fill="#1b8e73" height="1" width="1" x="30" y="16" /><rect fill="#1b8f73" height="1" width="1" x="1" y="17" /><rect fill="#1c9779" height="1" width="1" x="2" y="17" /><rect fill="#1b9275" height="1" width="1" x="3" y="17" /><rect fill="#1b9275" height="1" width="1" x="4" y="17" /><rect fill="#1b9275" height="1" width="1" x="5" y="17" /><rect fill="#1b9476" height="1" width="1" x="6" y="17" /><rect fill="#1b9677" height="1" width="1" x="7" y="17" /><rect fill="#198f6f" height="1" width="1" x="8" y="17" /><rect fill="#1b9173" height="1" width="1" x="9" y="17" /><rect fill="#1b9678" height="1" width="1" x="10" y="17" /><rect fill="#1b9476" height="1" width="1" x="11" y="17" /><rect fill="#1c9779" height="1" width="1" x="12" y="17" /><rect fill="#1ea080" height="1" width="1" x="13" y="17" /><rect fill="#1a9173" height="1" width="1" x="14" y="17" /><rect fill="#1a9174" height="1" width="1" x="17" y="17" /><rect fill="#1d9f7f" height="1" width="1" x="18" y="17" /><rect fill="#1c9779" height="1" width="1" x="19" y="17" /><rect fill="#1c9577" height="1" width="1" x="20" y="17" /><rect fill="#1b9678" height="1" width="1" x="21" y="17" /><rect fill="#1b9173" height="1" width="1" x="22" y="17" /><rect fill="#1b8f73" height="1" width="1" x="23" y="17" /><rect fill="#1b9678" height="1" width="1" x="24" y="17" /><rect fill="#1b9376" height="1" width="1" x="25" y="17" /><rect fill="#1b9375" height="1" width="1" x="26" y="17" /><rect fill="#1b9275" height="1" width="1" x="27" y="17" /><rect fill="#1b9275" height="1" width="1" x="28" y="17" /><rect fill="#1c9678" height="1" width="1" x="29" y="17" /><rect fill="#1e9173" height="1" width="1" x="30" y="17" /><rect fill="#1d896b" height="1" width="1" x="1" y="18" /><rect fill="#1a9274" height="1" width="1" x="2" y="18" /><rect fill="#1b9477" height="1" width="1" x="3" y="18" /><rect fill="#1b9275" height="1" width="1" x="4" y="18" /><rect fill="#1b9275" height="1" width="1" x="5" y="18" /><rect fill="#1b9376" height="1" width="1" x="6" y="18" /><rect fill="#1b9678" height="1" width="1" x="7" y="18" /><rect fill="#1a9374" height="1" width="1" x="8" y="18" /><rect fill="#1c9273" height="1" width="1" x="9" y="18" /><rect fill="#1c9577" height="1" width="1" x="10" y="18" /><rect fill="#1c9275" height="1" width="1" x="11" y="18" /><rect fill="#1b9274" height="1" width="1" x="12" y="18" /><rect fill="#1c9678" height="1" width="1" x="13" y="18" /><rect fill="#1a9172" height="1" width="1" x="14" y="18" /><rect fill="#198c6e" height="1" width="1" x="15" y="18" /><rect fill="#18896b" height="1" width="1" x="16" y="18" /><rect fill="#1a9173" height="1" width="1" x="17" y="18" /><rect fill="#1b9778" height="1" width="1" x="18" y="18" /><rect fill="#1b9174" height="1" width="1" x="19" y="18" /><rect fill="#1b9274" height="1" width="1" x="20" y="18" /><rect fill="#1c9678" height="1" width="1" x="21" y="18" /><rect fill="#1a9172" height="1" width="1" x="22" y="18" /><rect fill="#1c9475" height="1" width="1" x="23" y="18" /><rect fill="#1b9778" height="1" width="1" x="24" y="18" /><rect fill="#1b9375" height="1" width="1" x="25" y="18" /><rect fill="#1b9375" height="1" width="1" x="26" y="18" /><rect fill="#1b9275" height="1" width="1" x="27" y="18" /><rect fill="#1c9477" height="1" width="1" x="28" y="18" /><rect fill="#1a9274" height="1" width="1" x="29" y="18" /><rect fill="#21906e" height="1" width="1" x="30" y="18" /><rect fill="#00ff00" height="1" width="1" x="0" y="19" /><rect fill="#00ff00" height="1" width="1" x="1" y="19" /><rect fill="#1b9174" height="1" width="1" x="2" y="19" /><rect fill="#1c997b" height="1" width="1" x="3" y="19" /><rect fill="#1b9274" height="1" width="1" x="4" y="19" /><rect fill="#1b9375" height="1" width="1" x="5" y="19" /><rect fill="#1b9375" height="1" width="1" x="6" y="19" /><rect fill="#1b9476" height="1" width="1" x="7" y="19" /><rect fill="#1d9b7c" height="1" width="1" x="8" y="19" /><rect fill="#1b9376" height="1" width="1" x="9" y="19" /><rect fill="#1b9274" height="1" width="1" x="10" y="19" /><rect fill="#1c9374" height="1" width="1" x="11" y="19" /><rect fill="#1b8f71" height="1" width="1" x="12" y="19" /><rect fill="#1b9173" height="1" width="1" x="13" y="19" /><rect fill="#1b8e70" height="1" width="1" x="14" y="19" /><rect fill="#1c8d6b" height="1" width="1" x="15" y="19" /><rect fill="#1c8d6b" height="1" width="1" x="16" y="19" /><rect fill="#1a906e" height="1" width="1" x="17" y="19" /><rect fill="#1d9173" height="1" width="1" x="18" y="19" /><rect fill="#1c9073" height="1" width="1" x="19" y="19" /><rect fill="#1b9173" height="1" width="1" x="20" y="19" /><rect fill="#1b9375" height="1" width="1" x="21" y="19" /><rect fill="#1b9375" height="1" width="1" x="22" y="19" /><rect fill="#1d9c7d" height="1" width="1" x="23" y="19" /><rect fill="#1c9476" height="1" width="1" x="24" y="19" /><rect fill="#1b9375" height="1" width="1" x="25" y="19" /><rect fill="#1b9375" height="1" width="1" x="26" y="19" /><rect fill="#1b9275" height="1" width="1" x="27" y="19" /><rect fill="#1d997b" height="1" width="1" x="28" y="19" /><rect fill="#1a9174" height="1" width="1" x="29" y="19" /><rect fill="#000000" height="1" width="1" x="30" y="19" /><rect fill="#00ffff" height="1" width="1" x="31" y="19" /><rect fill="#00bf7f" height="1" width="1" x="0" y="20" /><rect fill="#1a9172" height="1" width="1" x="2" y="20" /><rect fill="#1d9e7e" height="1" width="1" x="3" y="20" /><rect fill="#1b9274" height="1" width="1" x="4" y="20" /><rect fill="#1b9375" height="1" width="1" x="5" y="20" /><rect fill="#1b9375" height="1" width="1" x="6" y="20" /><rect fill="#1b9375" height="1" width="1" x="7" y="20" /><rect fill="#1b9274" height="1" width="1" x="8" y="20" /><rect fill="#1c9879" height="1" width="1" x="9" y="20" /><rect fill="#1d9e7e" height="1" width="1" x="10" y="20" /><rect fill="#1e9e7e" height="1" width="1" x="11" y="20" /><rect fill="#1c9879" height="1" width="1" x="12" y="20" /><rect fill="#1d997a" height="1" width="1" x="13" y="20" /><rect fill="#1a9174" height="1" width="1" x="14" y="20" /><rect fill="#1a9274" height="1" width="1" x="17" y="20" /><rect fill="#1c997a" height="1" width="1" x="18" y="20" /><rect fill="#1c9879" height="1" width="1" x="19" y="20" /><rect fill="#1d9e7e" height="1" width="1" x="20" y="20" /><rect fill="#1e9e7e" height="1" width="1" x="21" y="20" /><rect fill="#1c9879" height="1" width="1" x="22" y="20" /><rect fill="#1b9274" height="1" width="1" x="23" y="20" /><rect fill="#1b9375" height="1" width="1" x="24" y="20" /><rect fill="#1b9375" height="1" width="1" x="25" y="20" /><rect fill="#1b9375" height="1" width="1" x="26" y="20" /><rect fill="#1b9274" height="1" width="1" x="27" y="20" /><rect fill="#1e9d7e" height="1" width="1" x="28" y="20" /><rect fill="#1b9273" height="1" width="1" x="29" y="20" /><rect fill="#00bf7f" height="1" width="1" x="31" y="20" /><rect fill="#005555" height="1" width="1" x="0" y="21" /><rect fill="#1a8f6f" height="1" width="1" x="2" y="21" /><rect fill="#1c9577" height="1" width="1" x="3" y="21" /><rect fill="#1b9375" height="1" width="1" x="4" y="21" /><rect fill="#1b9275" height="1" width="1" x="5" y="21" /><rect fill="#1b9375" height="1" width="1" x="6" y="21" /><rect fill="#1b9375" height="1" width="1" x="7" y="21" /><rect fill="#1b9375" height="1" width="1" x="8" y="21" /><rect fill="#1b9274" height="1" width="1" x="9" y="21" /><rect fill="#1b9275" height="1" width="1" x="10" y="21" /><rect fill="#1b9275" height="1" width="1" x="11" y="21" /><rect fill="#1b9274" height="1" width="1" x="12" y="21" /><rect fill="#1d987a" height="1" width="1" x="13" y="21" /><rect fill="#1b9274" height="1" width="1" x="14" y="21" /><rect fill="#007f7f" height="1" width="1" x="15" y="21" /><rect fill="#005555" height="1" width="1" x="16" y="21" /><rect fill="#1a9174" height="1" width="1" x="17" y="21" /><rect fill="#1c987a" height="1" width="1" x="18" y="21" /><rect fill="#1b9374" height="1" width="1" x="19" y="21" /><rect fill="#1b9374" height="1" width="1" x="20" y="21" /><rect fill="#1b9274" height="1" width="1" x="21" y="21" /><rect fill="#1b9274" height="1" width="1" x="22" y="21" /><rect fill="#1b9375" height="1" width="1" x="23" y="21" /><rect fill="#1b9375" height="1" width="1" x="24" y="21" /><rect fill="#1b9375" height="1" width="1" x="25" y="21" /><rect fill="#1b9375" height="1" width="1" x="26" y="21" /><rect fill="#1b9375" height="1" width="1" x="27" y="21" /><rect fill="#1c9677" height="1" width="1" x="28" y="21" /><rect fill="#1a916d" height="1" width="1" x="29" y="21" /><rect fill="#00aa55" height="1" width="1" x="31" y="21" /><rect fill="#005555" height="1" width="1" x="1" y="22" /><rect fill="#1b8f71" height="1" width="1" x="3" y="22" /><rect fill="#1d9c7d" height="1" width="1" x="4" y="22" /><rect fill="#1b9274" height="1" width="1" x="5" y="22" /><rect fill="#1b9375" height="1" width="1" x="6" y="22" /><rect fill="#1b9375" height="1" width="1" x="7" y="22" /><rect fill="#1b9375" height="1" width="1" x="8" y="22" /><rect fill="#1b9375" height="1" width="1" x="9" y="22" /><rect fill="#1b9375" height="1" width="1" x="10" y="22" /><rect fill="#1b9375" height="1" width="1" x="11" y="22" /><rect fill="#1b9274" height="1" width="1" x="12" y="22" /><rect fill="#1c987a" height="1" width="1" x="13" y="22" /><rect fill="#1b9274" height="1" width="1" x="14" y="22" /><rect fill="#000000" height="1" width="1" x="16" y="22" /><rect fill="#1b9174" height="1" width="1" x="17" y="22" /><rect fill="#1c9879" height="1" width="1" x="18" y="22" /><rect fill="#1b9374" height="1" width="1" x="19" y="22" /><rect fill="#1b9375" height="1" width="1" x="20" y="22" /><rect fill="#1b9375" height="1" width="1" x="21" y="22" /><rect fill="#1b9375" height="1" width="1" x="22" y="22" /><rect fill="#1b9375" height="1" width="1" x="23" y="22" /><rect fill="#1b9375" height="1" width="1" x="24" y="22" /><rect fill="#1b9375" height="1" width="1" x="25" y="22" /><rect fill="#1b9274" height="1" width="1" x="26" y="22" /><rect fill="#1d9c7c" height="1" width="1" x="27" y="22" /><rect fill="#1a9172" height="1" width="1" x="28" y="22" /><rect fill="#005555" height="1" width="1" x="30" y="22" /><rect fill="#007f7f" height="1" width="1" x="1" y="23" /><rect fill="#000000" height="1" width="1" x="2" y="23" /><rect fill="#1e8b6d" height="1" width="1" x="3" y="23" /><rect fill="#1c9577" height="1" width="1" x="4" y="23" /><rect fill="#1b9577" height="1" width="1" x="5" y="23" /><rect fill="#1b9275" height="1" width="1" x="6" y="23" /><rect fill="#1b9375" height="1" width="1" x="7" y="23" /><rect fill="#1b9375" height="1" width="1" x="8" y="23" /><rect fill="#1b9375" height="1" width="1" x="9" y="23" /><rect fill="#1b9375" height="1" width="1" x="10" y="23" /><rect fill="#1b9375" height="1" width="1" x="11" y="23" /><rect fill="#1b9274" height="1" width="1" x="12" y="23" /><rect fill="#1c987a" height="1" width="1" x="13" y="23" /><rect fill="#1b9174" height="1" width="1" x="14" y="23" /><rect fill="#00aa55" height="1" width="1" x="15" y="23" /><rect fill="#007f3f" height="1" width="1" x="16" y="23" /><rect fill="#1a9273" height="1" width="1" x="17" y="23" /><rect fill="#1c987a" height="1" width="1" x="18" y="23" /><rect fill="#1b9374" height="1" width="1" x="19" y="23" /><rect fill="#1b9375" height="1" width="1" x="20" y="23" /><rect fill="#1b9375" height="1" width="1" x="21" y="23" /><rect fill="#1b9375" height="1" width="1" x="22" y="23" /><rect fill="#1b9375" height="1" width="1" x="23" y="23" /><rect fill="#1b9375" height="1" width="1" x="24" y="23" /><rect fill="#1b9275" height="1" width="1" x="25" y="23" /><rect fill="#1b9476" height="1" width="1" x="26" y="23" /><rect fill="#1b9677" height="1" width="1" x="27" y="23" /><rect fill="#1c906e" height="1" width="1" x="28" y="23" /><rect fill="#000000" height="1" width="1" x="29" y="23" /><rect fill="#007f7f" height="1" width="1" x="30" y="23" /><rect fill="#00aa55" height="1" width="1" x="2" y="24" /><rect fill="#1a8f6f" height="1" width="1" x="4" y="24" /><rect fill="#1e9f7f" height="1" width="1" x="5" y="24" /><rect fill="#1b9275" height="1" width="1" x="6" y="24" /><rect fill="#1b9375" height="1" width="1" x="7" y="24" /><rect fill="#1b9375" height="1" width="1" x="8" y="24" /><rect fill="#1b9375" height="1" width="1" x="9" y="24" /><rect fill="#1b9375" height="1" width="1" x="10" y="24" /><rect fill="#1b9375" height="1" width="1" x="11" y="24" /><rect fill="#1b9274" height="1" width="1" x="12" y="24" /><rect fill="#1c997a" height="1" width="1" x="13" y="24" /><rect fill="#1b9274" height="1" width="1" x="14" y="24" /><rect fill="#1b9174" height="1" width="1" x="17" y="24" /><rect fill="#1c987a" height="1" width="1" x="18" y="24" /><rect fill="#1b9374" height="1" width="1" x="19" y="24" /><rect fill="#1b9375" height="1" width="1" x="20" y="24" /><rect fill="#1b9375" height="1" width="1" x="21" y="24" /><rect fill="#1b9375" height="1" width="1" x="22" y="24" /><rect fill="#1b9375" height="1" width="1" x="23" y="24" /><rect fill="#1b9375" height="1" width="1" x="24" y="24" /><rect fill="#1b9275" height="1" width="1" x="25" y="24" /><rect fill="#1d9f7e" height="1" width="1" x="26" y="24" /><rect fill="#1a9071" height="1" width="1" x="27" y="24" /><rect fill="#00aa55" height="1" width="1" x="29" y="24" /><rect fill="#007f7f" height="1" width="1" x="3" y="25" /><rect fill="#1b9172" height="1" width="1" x="5" y="25" /><rect fill="#1ea080" height="1" width="1" x="6" y="25" /><rect fill="#1b9275" height="1" width="1" x="7" y="25" /><rect fill="#1b9275" height="1" width="1" x="8" y="25" /><rect fill="#1b9375" height="1" width="1" x="9" y="25" /><rect fill="#1b9375" height="1" width="1" x="10" y="25" /><rect fill="#1b9376" height="1" width="1" x="11" y="25" /><rect fill="#1b9375" height="1" width="1" x="12" y="25" /><rect fill="#1c9779" height="1" width="1" x="13" y="25" /><rect fill="#1b9274" height="1" width="1" x="14" y="25" /><rect fill="#1c8f73" height="1" width="1" x="15" y="25" /><rect fill="#1c8d71" height="1" width="1" x="16" y="25" /><rect fill="#1a9274" height="1" width="1" x="17" y="25" /><rect fill="#1c9778" height="1" width="1" x="18" y="25" /><rect fill="#1b9274" height="1" width="1" x="19" y="25" /><rect fill="#1b9375" height="1" width="1" x="20" y="25" /><rect fill="#1b9375" height="1" width="1" x="21" y="25" /><rect fill="#1b9375" height="1" width="1" x="22" y="25" /><rect fill="#1b9275" height="1" width="1" x="23" y="25" /><rect fill="#1b9275" height="1" width="1" x="24" y="25" /><rect fill="#1ea07f" height="1" width="1" x="25" y="25" /><rect fill="#1b9071" height="1" width="1" x="26" y="25" /><rect fill="#007f7f" height="1" width="1" x="28" y="25" /><rect fill="#000000" height="1" width="1" x="3" y="26" /><rect fill="#00aa55" height="1" width="1" x="4" y="26" /><rect fill="#1d9274" height="1" width="1" x="6" y="26" /><rect fill="#1e9e7f" height="1" width="1" x="7" y="26" /><rect fill="#1b9376" height="1" width="1" x="8" y="26" /><rect fill="#1b9174" height="1" width="1" x="9" y="26" /><rect fill="#1b9375" height="1" width="1" x="10" y="26" /><rect fill="#1b9375" height="1" width="1" x="11" y="26" /><rect fill="#1b9375" height="1" width="1" x="12" y="26" /><rect fill="#1b9375" height="1" width="1" x="13" y="26" /><rect fill="#1b9476" height="1" width="1" x="14" y="26" /><rect fill="#1c987a" height="1" width="1" x="15" y="26" /><rect fill="#1c9879" height="1" width="1" x="16" y="26" /><rect fill="#1b9476" height="1" width="1" x="17" y="26" /><rect fill="#1b9275" height="1" width="1" x="18" y="26" /><rect fill="#1b9375" height="1" width="1" x="19" y="26" /><rect fill="#1b9375" height="1" width="1" x="20" y="26" /><rect fill="#1b9375" height="1" width="1" x="21" y="26" /><rect fill="#1b9174" height="1" width="1" x="22" y="26" /><rect fill="#1b9375" height="1" width="1" x="23" y="26" /><rect fill="#1d9e7e" height="1" width="1" x="24" y="26" /><rect fill="#1b9173" height="1" width="1" x="25" y="26" /><rect fill="#00aa55" height="1" width="1" x="27" y="26" /><rect fill="#000000" height="1" width="1" x="28" y="26" /><rect fill="#000000" height="1" width="1" x="4" y="27" /><rect fill="#007f7f" height="1" width="1" x="5" y="27" /><rect fill="#1c9274" height="1" width="1" x="7" y="27" /><rect fill="#1c9678" height="1" width="1" x="8" y="27" /><rect fill="#1d9b7c" height="1" width="1" x="9" y="27" /><rect fill="#1b9275" height="1" width="1" x="10" y="27" /><rect fill="#1b9275" height="1" width="1" x="11" y="27" /><rect fill="#1b9374" height="1" width="1" x="12" y="27" /><rect fill="#1b9275" height="1" width="1" x="13" y="27" /><rect fill="#1b9375" height="1" width="1" x="14" y="27" /><rect fill="#1b9374" height="1" width="1" x="15" y="27" /><rect fill="#1b9374" height="1" width="1" x="16" y="27" /><rect fill="#1b9375" height="1" width="1" x="17" y="27" /><rect fill="#1b9275" height="1" width="1" x="18" y="27" /><rect fill="#1b9374" height="1" width="1" x="19" y="27" /><rect fill="#1b9274" height="1" width="1" x="20" y="27" /><rect fill="#1b9174" height="1" width="1" x="21" y="27" /><rect fill="#1d9b7c" height="1" width="1" x="22" y="27" /><rect fill="#1c9678" height="1" width="1" x="23" y="27" /><rect fill="#1b9272" height="1" width="1" x="24" y="27" /><rect fill="#007f7f" height="1" width="1" x="26" y="27" /><rect fill="#000000" height="1" width="1" x="27" y="27" /><rect fill="#000000" height="1" width="1" x="5" y="28" /><rect fill="#007f7f" height="1" width="1" x="6" y="28" /><rect fill="#198e70" height="1" width="1" x="8" y="28" /><rect fill="#1c9577" height="1" width="1" x="9" y="28" /><rect fill="#1c9678" height="1" width="1" x="10" y="28" /><rect fill="#1d9d7e" height="1" width="1" x="11" y="28" /><rect fill="#1c9879" height="1" width="1" x="12" y="28" /><rect fill="#1c9476" height="1" width="1" x="13" y="28" /><rect fill="#1b9275" height="1" width="1" x="14" y="28" /><rect fill="#1b9275" height="1" width="1" x="15" y="28" /><rect fill="#1b9275" height="1" width="1" x="16" y="28" /><rect fill="#1b9374" height="1" width="1" x="17" y="28" /><rect fill="#1b9476" height="1" width="1" x="18" y="28" /><rect fill="#1c9779" height="1" width="1" x="19" y="28" /><rect fill="#1d9d7d" height="1" width="1" x="20" y="28" /><rect fill="#1c9778" height="1" width="1" x="21" y="28" /><rect fill="#1c9576" height="1" width="1" x="22" y="28" /><rect fill="#198c6e" height="1" width="1" x="23" y="28" /><rect fill="#007f7f" height="1" width="1" x="25" y="28" /><rect fill="#000000" height="1" width="1" x="26" y="28" /><rect fill="#00aaaa" height="1" width="1" x="7" y="29" /><rect fill="#1b9176" height="1" width="1" x="10" y="29" /><rect fill="#1b9476" height="1" width="1" x="11" y="29" /><rect fill="#1b9476" height="1" width="1" x="12" y="29" /><rect fill="#1b9476" height="1" width="1" x="13" y="29" /><rect fill="#1c9879" height="1" width="1" x="14" y="29" /><rect fill="#1c9a7b" height="1" width="1" x="15" y="29" /><rect fill="#1c9a7b" height="1" width="1" x="16" y="29" /><rect fill="#1c9879" height="1" width="1" x="17" y="29" /><rect fill="#1b9375" height="1" width="1" x="18" y="29" /><rect fill="#1b9576" height="1" width="1" x="19" y="29" /><rect fill="#1b9476" height="1" width="1" x="20" y="29" /><rect fill="#199274" height="1" width="1" x="21" y="29" /><rect fill="#00aaaa" height="1" width="1" x="24" y="29" /><rect fill="#007f7f" height="1" width="1" x="8" y="30" /><rect fill="#007f7f" height="1" width="1" x="9" y="30" /><rect fill="#00ff00" height="1" width="1" x="12" y="30" /><rect fill="#199077" height="1" width="1" x="13" y="30" /><rect fill="#1b9676" height="1" width="1" x="14" y="30" /><rect fill="#198f72" height="1" width="1" x="15" y="30" /><rect fill="#198f72" height="1" width="1" x="16" y="30" /><rect fill="#1e9576" height="1" width="1" x="17" y="30" /><rect fill="#1f9777" height="1" width="1" x="18" y="30" /><rect fill="#005555" height="1" width="1" x="19" y="30" /><rect fill="#007f7f" height="1" width="1" x="22" y="30" /><rect fill="#007f7f" height="1" width="1" x="23" y="30" /><rect fill="#00aa55" height="1" width="1" x="10" y="31" /><rect fill="#007f7f" height="1" width="1" x="11" y="31" /><rect fill="#007f7f" height="1" width="1" x="20" y="31" /><rect fill="#00aa55" height="1" width="1" x="21" y="31" /></svg>